<?xml version="1.0" encoding="UTF-8"?>
<svg version="1.1" xmlns="http://www.w3.org/2000/svg" width="1493" height="1877">
<path d="M0 0 C4.97107165 3.69643789 8.59227529 8.02159412 12.453125 12.84765625 C15.1848077 16.25580683 18.02335695 19.56707576 20.875 22.875 C21.89986338 24.06629976 22.92460259 25.25770635 23.94921875 26.44921875 C24.45630371 27.03880371 24.96338867 27.62838867 25.48583984 28.23583984 C31.19291452 34.88519837 36.85560504 41.56875157 42.375 48.375 C46.54156423 53.49733524 50.86201281 58.47417378 55.20043945 63.45043945 C59.1224954 67.95939957 62.93031865 72.54698064 66.69140625 77.19140625 C69.41344091 80.5029848 72.20139731 83.75313059 75 87 C79.29977994 91.98936093 83.50485562 97.04221344 87.65625 102.15625 C90.39302049 105.47686486 93.1910295 108.74046782 96 112 C100.29972713 116.98940767 104.50485409 122.04221156 108.65625 127.15625 C111.39302049 130.47686486 114.1910295 133.74046782 117 137 C121.29972713 141.98940767 125.50485409 147.04221156 129.65625 152.15625 C132.39302138 155.47686594 135.19106385 158.74043709 138 162 C142.31934272 167.01314773 146.55097277 172.08537515 150.72265625 177.22265625 C153.28204054 180.34396367 155.88593791 183.4245003 158.5 186.5 C162.62107792 191.34954051 166.66991483 196.25160964 170.6875 201.1875 C173.26146392 204.31799666 175.87569086 207.41172461 178.5 210.5 C182.62101634 215.34959381 186.66991354 220.25160806 190.6875 225.1875 C193.26146392 228.31799666 195.87569086 231.41172461 198.5 234.5 C202.62101634 239.34959381 206.66991354 244.25160806 210.6875 249.1875 C213.26146392 252.31799666 215.87569086 255.41172461 218.5 258.5 C222.62405185 263.35316599 226.67665537 268.25812965 230.6953125 273.19921875 C233.22033075 276.26775787 235.79484769 279.29039812 238.375 282.3125 C242.15791912 286.74850923 245.80546102 291.2659088 249.375 295.875 C253.78019313 301.55837978 258.41914351 306.99232688 263.16357422 312.39404297 C266.74822587 316.49670173 270.17101547 320.68796372 273.5 325 C277.93122042 330.73902046 282.60202717 336.22540122 287.37719727 341.68017578 C290.96408286 345.78390214 294.42575682 349.95758989 297.80078125 354.23828125 C300.701155 357.88049127 303.66204129 361.47113268 306.625 365.0625 C307.52049561 366.14821289 307.52049561 366.14821289 308.43408203 367.25585938 C309.66630822 368.74934767 310.89873283 370.24267229 312.13134766 371.73583984 C315.19415223 375.44689937 318.25348879 379.16081344 321.3125 382.875 C321.89878174 383.5868042 322.48506348 384.2986084 323.08911133 385.03198242 C327.73816315 390.67815344 332.37284093 396.33586932 337 402 C338.49985696 403.83345036 339.9998594 405.66678171 341.5 407.5 C359.5 429.5 359.5 429.5 361.765625 432.26953125 C363.21297051 434.03822795 364.66085301 435.80648543 366.109375 437.57421875 C371.62458109 444.30719845 377.11642709 451.05892923 382.6015625 457.81640625 C384.84282603 460.57711254 387.08774204 463.33478 389.3359375 466.08984375 C394.8804846 472.8894038 400.37059349 479.72271248 405.76611328 486.64111328 C409.43445515 491.32469355 413.20580849 495.91804448 417 500.5 C421.71297432 506.1914994 426.34452844 511.93324446 430.88671875 517.76171875 C434.36854193 522.2208958 437.92259508 526.61724641 441.5 531 C446.96528333 537.69997596 452.33556292 544.46785376 457.65722656 551.28222656 C459.93233943 554.19271641 462.21671982 557.09591641 464.5 560 C465.42060174 561.17185235 466.34117471 562.34372732 467.26171875 563.515625 C469.05478524 565.79782527 470.849118 568.07902056 472.64453125 570.359375 C483.02217555 583.54457166 493.34406786 596.77493246 503.54345703 610.09863281 C504.61886279 611.50246453 505.69555383 612.90531187 506.77294922 614.30761719 C514.33805457 624.15728163 521.85540746 634.031747 529.08007812 644.13491821 C531.70529322 647.80608587 534.33757881 651.47115708 537.00097656 655.11474609 C544.39327537 665.24159476 551.50007462 675.52860281 558.42993164 685.97680664 C560.06153855 688.43605086 561.69929663 690.89111032 563.33789062 693.34570312 C573.32433744 708.33759107 583.12094739 723.45602442 592.125 739.0625 C592.7135376 740.07795898 593.3020752 741.09341797 593.90844727 742.13964844 C598.56403964 750.19537829 603.15611625 758.28222771 607.60839844 766.45214844 C608.60438075 768.27566974 609.60563598 770.09631497 610.61035156 771.91503906 C650.46300366 844.13260435 679.66030719 922.77728309 705 1085 C705.06195053 1085.94496841 705.06195053 1085.94496841 705.12515259 1086.9090271 C706.04484072 1101.08453912 706.20121651 1115.23519938 706.1875 1129.4375 C706.18689575 1130.59951935 706.1862915 1131.7615387 706.18566895 1132.95877075 C706.07249987 1213.56758666 693.19353771 1292.96509644 593 1528 C592.42056641 1528.9379541 591.84113281 1529.8759082 591.24414062 1530.84228516 C585.22405542 1540.58626416 578.98664668 1550.08646899 572.21777344 1559.32617188 C570.96651965 1561.0460187 569.73466648 1562.77830017 568.5078125 1564.515625 C563.27082737 1571.92984104 557.87719336 1579.19531364 552.28857422 1586.34814453 C550.96947684 1588.0391284 549.65828932 1589.73604379 548.34765625 1591.43359375 C543.18532804 1598.09241083 537.86849028 1604.58124857 532.34912109 1610.94750977 C529.24152255 1614.5338629 526.22123771 1618.17371591 523.25 1621.875 C520.07833928 1625.78518822 516.76879947 1629.39049472 513.1171875 1632.85546875 C511.28246162 1634.71389035 509.59702859 1636.61367262 507.89868164 1638.59472656 C503.94596975 1643.1250143 499.75967123 1647.38465658 495.50390625 1651.62890625 C494.71153061 1652.42223862 493.91915497 1653.21557098 493.10276794 1654.03294373 C491.43749717 1655.69889081 489.77097971 1657.36359256 488.10327148 1659.02709961 C485.56965378 1661.55536134 483.04141833 1664.08891661 480.51367188 1666.62304688 C478.88573717 1668.2503207 477.25749225 1669.87728425 475.62890625 1671.50390625 C474.88282608 1672.25201065 474.13674591 1673.00011505 473.36805725 1673.77088928 C468.73737341 1678.38123132 463.95366584 1682.74067141 459 1687 C457.39231627 1688.45445517 455.78760285 1689.91220895 454.1875 1691.375 C449.94911157 1695.19597138 445.60120897 1698.84247331 441.1640625 1702.4296875 C438.7871519 1704.35180461 436.43324057 1706.29965269 434.0859375 1708.2578125 C424.60841726 1716.15244835 414.95459301 1723.71723282 405 1731 C404.27135742 1731.53512207 403.54271484 1732.07024414 402.79199219 1732.62158203 C392.70191905 1740.02082422 382.49904465 1747.19340571 372 1754 C371.20674316 1754.51643066 370.41348633 1755.03286133 369.59619141 1755.56494141 C343.03544896 1772.81407242 315.55773005 1788.6580113 287 1802.375 C286.02023193 1802.84574951 285.04046387 1803.31649902 284.03100586 1803.80151367 C277.2613527 1807 277.2613527 1807 275 1807 C275 1807.66 275 1808.32 275 1809 C197.65670348 1843.36542692 115.21992823 1866.14746412 21.4375 1874.6875 C20.36449142 1874.77890762 20.36449142 1874.77890762 19.26980591 1874.87216187 C-0.8341562 1876.55975781 -20.95331776 1877.23805846 -41.125 1877.25 C-42.69639236 1877.25101212 -42.69639236 1877.25101212 -44.29953003 1877.25204468 C-129.99195668 1877.16576604 -215.23450553 1861.29084266 -312.4296875 1825.4375 C-315.18349251 1824.328747 -317.76235696 1823.47411595 -320.60546875 1822.6796875 C-327.14869033 1820.77032159 -333.24566132 1817.94797724 -339.4375 1815.125 C-340.71359688 1814.54689863 -341.98972044 1813.96885613 -343.26586914 1813.39086914 C-419.26710692 1778.85683278 -489.33176949 1733.13339853 -550.11181641 1675.77490234 C-552.01821162 1673.98288099 -553.93494315 1672.20264358 -555.85546875 1670.42578125 C-565.75755123 1661.2588153 -575.6660928 1652.07976995 -584.42578125 1641.79296875 C-586.0476719 1639.94570371 -587.74660205 1638.22243286 -589.5 1636.5 C-593.21199457 1632.83717092 -596.60846641 1628.95893845 -600 1625 C-600.86367188 1624.00226563 -601.72734375 1623.00453125 -602.6171875 1621.9765625 C-616.04305559 1606.44052491 -628.83506274 1590.54537019 -641 1574 C-641.56074219 1573.24074219 -642.12148438 1572.48148438 -642.69921875 1571.69921875 C-696.313083 1498.98302757 -736.37216278 1416.28565373 -778.62054443 1018.93429565 C-766.38696857 938.56568705 -741.50588959 861.5724304 -705 789 C-704.69239746 788.38761475 -704.38479492 787.77522949 -704.06787109 787.14428711 C-701.91512221 782.86821061 -699.71845032 778.61737235 -697.5 774.375 C-696.93667969 773.27172363 -696.37335938 772.16844727 -695.79296875 771.03173828 C-691.85761694 763.64825751 -691.85761694 763.64825751 -688.34375 760.9921875 C-687.2403125 760.66476562 -686.136875 760.33734375 -685 760 C-684.18080078 759.75362793 -683.36160156 759.50725586 -682.51757812 759.25341797 C-679.36029935 758.34578026 -676.1891943 757.53821593 -673 756.75 C-671.78594482 756.44989014 -670.57188965 756.14978027 -669.32104492 755.84057617 C-593.21482396 737.38833407 -513.63147985 734.75559241 -395 758 C-394.97083496 757.44393066 -394.94166992 756.88786133 -394.91162109 756.31494141 C-390.07721983 670.13277049 -372.78172908 582.99670281 -346 501 C-345.72520813 500.1571344 -345.45041626 499.3142688 -345.16729736 498.44586182 C-322.77065353 429.90161922 -294.08381834 363.48804021 -258 301 C-257.34483398 299.85982422 -256.68966797 298.71964844 -256.01464844 297.54492188 C-247.08347936 282.01235643 -237.85797817 266.75782731 -227.90332031 251.85205078 C-225.90266619 248.85414911 -223.91541479 245.84765042 -221.9296875 242.83984375 C-206.9265105 220.16000268 -191.27541009 197.94925042 -174.32666016 176.67382812 C-172.96165981 174.95162673 -171.61004984 173.21965176 -170.26171875 171.484375 C-165.29788962 165.10293596 -160.23757707 158.83149817 -154.984375 152.68554688 C-152.10088109 149.311859 -149.28362156 145.89473817 -146.5 142.4375 C-142.37309794 137.36392507 -137.99897442 132.56258858 -133.5546875 127.76953125 C-131.49886278 125.54081607 -129.48383043 123.29232081 -127.5 121 C-123.30146799 116.1662291 -118.9636471 111.46130357 -114.62150574 106.75694275 C-113.56832796 105.61579781 -112.51573273 104.47411485 -111.46382141 103.33180237 C-102.8837371 94.02473705 -94.1036515 84.94485486 -85.13867188 76.00830078 C-83.10167579 73.976738 -81.07018049 71.93978164 -79.0390625 69.90234375 C-77.71646683 68.58040793 -76.39356151 67.25878183 -75.0703125 65.9375 C-74.18099533 65.04514648 -74.18099533 65.04514648 -73.27371216 64.13476562 C-69.56868515 60.45005489 -65.73456079 56.96517758 -61.78268433 53.546875 C-59.81110244 51.83608937 -57.89475624 50.07661613 -56 48.28125 C-55.34 47.65863281 -54.68 47.03601562 -54 46.39453125 C-53.34 45.76933594 -52.68 45.14414062 -52 44.5 C-46.76737701 39.54331611 -41.45496396 34.71116903 -36 30 C-35.17459717 29.28336182 -35.17459717 29.28336182 -34.33251953 28.55224609 C-23.08647101 18.80196029 -11.64952345 9.26511806 0 0 Z M-394 758 C-394 774.5 -394 791 -394 808 C-393.67 808 -393.34 808 -393 808 C-393 791.5 -393 775 -393 758 C-393.33 758 -393.66 758 -394 758 Z M-395 817 C-395.69263308 905.6357221 -386.0268732 993.7954973 -306 1252 C-305.50048828 1253.10649902 -305.00097656 1254.21299805 -304.48632812 1255.35302734 C-301.05268834 1262.93136952 -297.54561607 1270.47348018 -294 1278 C-293.4740625 1279.12035645 -292.948125 1280.24071289 -292.40625 1281.39501953 C-285.54072247 1295.98220258 -278.31903182 1310.27981313 -270.46191406 1324.35693359 C-269.00995357 1326.98200444 -267.59000262 1329.62188269 -266.1796875 1332.26953125 C-258.90723037 1345.8854365 -251.02061204 1359.07971676 -242.93095398 1372.21929932 C-241.01969469 1375.32625341 -239.13092354 1378.44425252 -237.27734375 1381.5859375 C-223.89289929 1404.17639964 -208.65005907 1425.92980381 -193 1447 C-191.87486693 1448.52985006 -190.74987119 1450.05980113 -189.625 1451.58984375 C-188.52166217 1453.08134265 -187.41752352 1454.57224956 -186.3125 1456.0625 C-185.80630127 1456.74908691 -185.30010254 1457.43567383 -184.77856445 1458.14306641 C-182.35128167 1461.58491984 -182.35128167 1461.58491984 -179 1464 C-180.30324443 1461.25122893 -181.74700086 1458.82522692 -183.546875 1456.375 C-184.05452393 1455.67938965 -184.56217285 1454.9837793 -185.08520508 1454.26708984 C-185.6345874 1453.5189502 -186.18396973 1452.77081055 -186.75 1452 C-221.86227018 1403.73594692 -252.92099792 1353.18578283 -280 1300 C-280.58281738 1298.86159668 -281.16563477 1297.72319336 -281.76611328 1296.55029297 C-301.66687528 1257.62213942 -318.59721978 1217.27632304 -333 1176 C-333.23485107 1175.32702881 -333.46970215 1174.65405762 -333.71166992 1173.96069336 C-363.71209865 1087.74342637 -382.74077912 998.17334469 -394 817 C-394.33 817 -394.66 817 -395 817 Z M-179 1464 C-177.26787171 1467.98586338 -174.6438002 1471.27699774 -172 1474.6875 C-171.54882812 1475.28111328 -171.09765625 1475.87472656 -170.6328125 1476.48632812 C-168.24145424 1479.72546661 -168.24145424 1479.72546661 -165 1482 C-166.73212829 1478.01413662 -169.3561998 1474.72300226 -172 1471.3125 C-172.45117188 1470.71888672 -172.90234375 1470.12527344 -173.3671875 1469.51367188 C-175.75854576 1466.27453339 -175.75854576 1466.27453339 -179 1464 Z M-165 1482 C-163.6910428 1485.12197478 -163.6910428 1485.12197478 -161 1487 C-162.3089572 1483.87802522 -162.3089572 1483.87802522 -165 1482 Z M-161 1487 C-159.63629701 1489.99220268 -158.05091917 1492.29026529 -155.875 1494.75 C-155.33617187 1495.36359375 -154.79734375 1495.9771875 -154.2421875 1496.609375 C-153.83226562 1497.06828125 -153.42234375 1497.5271875 -153 1498 C-153 1494.24026115 -153.96542407 1493.54322371 -156.4375 1490.8125 C-157.07558594 1490.09707031 -157.71367188 1489.38164063 -158.37109375 1488.64453125 C-158.90863281 1488.10183594 -159.44617188 1487.55914063 -160 1487 C-160.33 1487 -160.66 1487 -161 1487 Z M-152 1498 C-150.63016497 1501.16115776 -150.0109362 1501.9927092 -147 1504 C-148.36983503 1500.83884224 -148.9890638 1500.0072908 -152 1498 Z M-147 1504 C-145.63016497 1507.16115776 -145.0109362 1507.9927092 -142 1510 C-143.36983503 1506.83884224 -143.9890638 1506.0072908 -147 1504 Z M-141 1511 C-139.60667426 1514.36720387 -138.0210714 1515.9859524 -135 1518 C-136.39332574 1514.63279613 -137.9789286 1513.0140476 -141 1511 Z M-134 1519 C-132.60667426 1522.36720387 -131.0210714 1523.9859524 -128 1526 C-129.39332574 1522.63279613 -130.9789286 1521.0140476 -134 1519 Z M-127 1527 C-125.50902342 1530.7952131 -123.24299151 1532.61042731 -120 1535 C-121.49097658 1531.2047869 -123.75700849 1529.38957269 -127 1527 Z M-117 1538 C-115.61811547 1541.21043882 -114.07578097 1543.04936365 -111.375 1545.25 C-110.74335937 1545.77078125 -110.11171875 1546.2915625 -109.4609375 1546.828125 C-108.97882812 1547.21484375 -108.49671875 1547.6015625 -108 1548 C-109.38188453 1544.78956118 -110.92421903 1542.95063635 -113.625 1540.75 C-114.25664063 1540.22921875 -114.88828125 1539.7084375 -115.5390625 1539.171875 C-116.02117188 1538.78515625 -116.50328125 1538.3984375 -117 1538 Z M-101 1555 C-99.71977125 1557.80969467 -98.39285871 1559.8539238 -96.20263672 1562.02441406 C-95.64220673 1562.58469299 -95.08177673 1563.14497192 -94.50436401 1563.722229 C-93.90222076 1564.31404968 -93.30007751 1564.90587036 -92.6796875 1565.515625 C-92.06102814 1566.13145447 -91.44236877 1566.74728394 -90.80496216 1567.3817749 C-88.83296186 1569.34260336 -86.85411263 1571.29635301 -84.875 1573.25 C-83.53469836 1574.58026799 -82.19484917 1575.910992 -80.85546875 1577.2421875 C-77.57553411 1580.5001015 -74.28944058 1583.75168533 -71 1587 C-70.34 1586.67 -69.68 1586.34 -69 1586 C-73.39308638 1581.58165052 -77.79001624 1577.16715378 -82.18969727 1572.75537109 C-83.68734052 1571.25268527 -85.18408691 1569.74910507 -86.67993164 1568.24462891 C-88.82465709 1566.08783449 -90.9725406 1563.93423049 -93.12109375 1561.78125 C-93.79401962 1561.10316284 -94.4669455 1560.42507568 -95.16026306 1559.72644043 C-95.78083084 1559.10579712 -96.40139862 1558.48515381 -97.04077148 1557.84570312 C-97.58926254 1557.29499146 -98.1377536 1556.74427979 -98.7028656 1556.17687988 C-99.83152419 1554.88800948 -99.83152419 1554.88800948 -101 1555 Z M-61 1595 C-60.01 1596.485 -60.01 1596.485 -59 1598 C-58.34 1597.67 -57.68 1597.34 -57 1597 C-58.32 1596.34 -59.64 1595.68 -61 1595 Z " fill="#DD2C00" transform="translate(787,0)"/>
<path d="M0 0 C2.41319 0.5745944 4.8266731 1.13097426 7.24755859 1.67089844 C17.68764867 4.01997969 27.84163614 6.95618114 38.00756836 10.29052734 C39.1993721 10.67919479 39.1993721 10.67919479 40.41525269 11.07571411 C100.37658867 30.69984446 156.22808504 60.51110067 206.32006836 98.79052734 C206.95686523 99.27569824 207.59366211 99.76086914 208.24975586 100.26074219 C220.53271398 109.65759385 232.21279705 119.72728673 243.55053711 130.23974609 C245.9639 132.46249076 248.41442746 134.62930552 250.88256836 136.79052734 C256.09633446 141.46933047 261.04703052 146.40811996 266.00756836 151.35302734 C266.81589111 152.15675781 267.62421387 152.96048828 268.45703125 153.78857422 C272.72734591 158.0698643 276.84190834 162.42610871 280.78515625 167.01049805 C282.86742877 169.42529826 285.03154689 171.76103356 287.19506836 174.10302734 C292.11514141 179.5054605 296.76361849 185.07967491 301.32006836 190.79052734 C301.93205078 191.55308838 301.93205078 191.55308838 302.55639648 192.33105469 C328.55636769 224.77147677 350.64443398 259.65735908 369.32006836 296.79052734 C369.80685059 297.74942871 370.29363281 298.70833008 370.79516602 299.69628906 C399.35745105 356.24679015 416.25757178 418.11346102 424.32006836 480.79052734 C424.56998535 482.70696045 424.56998535 482.70696045 424.82495117 484.66210938 C429.94275482 526.10784224 429.74416182 570.39978263 424.32006836 611.79052734 C424.15123694 613.14995825 423.98328997 614.50949924 423.81616211 615.86914062 C414.51429786 690.6938212 389.8204544 762.93742622 351.89038086 828.08886719 C350.8059564 829.9545763 349.73929119 831.83068119 348.68725586 833.71484375 C348.16389648 834.63313965 347.64053711 835.55143555 347.10131836 836.49755859 C346.63790039 837.32360596 346.17448242 838.14965332 345.69702148 839.00073242 C345.24262695 839.59136475 344.78823242 840.18199707 344.32006836 840.79052734 C343.33006836 840.79052734 342.34006836 840.79052734 341.32006836 840.79052734 C342.61590366 844.57331928 344.06685779 846.90198652 346.94506836 849.66552734 C347.66694336 850.35904297 348.38881836 851.05255859 349.13256836 851.76708984 C352.46694129 854.8513848 355.86549311 857.84163828 359.32006836 860.79052734 C360.3619608 861.68479562 361.40360799 862.57934967 362.44506836 863.47412109 C364.83056425 865.52266145 367.21904312 867.56765952 369.60913086 869.61083984 C372.02828216 871.68023433 374.43945569 873.75830042 376.84350586 875.84521484 C384.26200791 882.27264 391.83716897 888.43848885 399.59643555 894.44921875 C401.27498249 895.75544211 402.94370343 897.07309985 404.60913086 898.39599609 C419.37409505 910.11477463 434.4821416 921.37415216 449.95483398 932.140625 C452.61878353 933.99890029 455.27406868 935.86923993 457.92944336 937.73974609 C468.1550272 944.92451531 478.42647943 951.91910409 489.09790039 958.42236328 C491.65296539 959.99548834 494.18800721 961.59839477 496.72241211 963.20458984 C519.06147522 977.33996874 541.96123445 990.41837036 565.32006836 1002.79052734 C566.42656738 1003.37801758 567.53306641 1003.96550781 568.6730957 1004.57080078 C593.29390545 1017.59984653 618.36137855 1029.53938876 644.00756836 1040.41552734 C645.02711609 1040.84794235 645.02711609 1040.84794235 646.06726074 1041.28909302 C653.95237073 1044.6236323 661.86731631 1047.80568369 669.91699219 1050.72558594 C672.32006836 1051.79052734 672.32006836 1051.79052734 673.32006836 1053.79052734 C653.20030337 1062.440824 632.99461165 1070.54232054 612.32006836 1077.79052734 C611.11592285 1078.21430664 609.91177734 1078.63808594 608.67114258 1079.07470703 C548.33872972 1100.15499953 485.41102574 1113.10453548 421.75756836 1118.47802734 C420.68455978 1118.56943497 420.68455978 1118.56943497 419.58987427 1118.66268921 C399.48591216 1120.35028516 379.3667506 1121.02858581 359.19506836 1121.04052734 C357.62367599 1121.04153946 357.62367599 1121.04153946 356.02053833 1121.04257202 C270.32811168 1120.95629338 185.08556283 1105.08137 87.89038086 1069.22802734 C85.13657585 1068.11927434 82.55771139 1067.26464329 79.71459961 1066.47021484 C73.17137803 1064.56084894 67.07440704 1061.73850459 60.88256836 1058.91552734 C59.60647147 1058.33742597 58.33034792 1057.75938348 57.05419922 1057.18139648 C-18.94703856 1022.64736012 -89.01170113 976.92392588 -149.79174805 919.56542969 C-151.69814326 917.77340833 -153.61487479 915.99317092 -155.53540039 914.21630859 C-165.43748287 905.04934264 -175.34602444 895.8702973 -184.10571289 885.58349609 C-185.72760354 883.73623106 -187.42653369 882.0129602 -189.17993164 880.29052734 C-192.89192621 876.62769827 -196.28839805 872.7494658 -199.67993164 868.79052734 C-200.54360352 867.79279297 -201.40727539 866.79505859 -202.29711914 865.76708984 C-215.72298723 850.23105225 -228.51499439 834.33589754 -240.67993164 817.79052734 C-241.24067383 817.03126953 -241.80141602 816.27201172 -242.37915039 815.48974609 C-295.99301464 742.77355491 -336.05209442 660.07618107 -378.30047607 262.724823 C-366.06690021 182.3562144 -341.18582123 105.36295774 -304.67993164 32.79052734 C-304.3723291 32.17814209 -304.06472656 31.56575684 -303.74780273 30.93481445 C-301.59505385 26.65873796 -299.39838196 22.40789969 -297.17993164 18.16552734 C-296.33495117 16.51061279 -296.33495117 16.51061279 -295.47290039 14.82226562 C-291.53754858 7.43878485 -291.53754858 7.43878485 -288.02368164 4.78271484 C-286.92024414 4.45529297 -285.81680664 4.12787109 -284.67993164 3.79052734 C-283.86073242 3.54415527 -283.0415332 3.2977832 -282.19750977 3.04394531 C-279.04023099 2.13630761 -275.86912594 1.32874327 -272.67993164 0.54052734 C-271.46587646 0.24041748 -270.25182129 -0.05969238 -269.00097656 -0.36889648 C-192.89577719 -18.8208909 -113.31033203 -21.45559201 0 0 Z M5.32006836 60.79052734 C4.62743528 149.42624945 14.29319516 237.58602464 94.32006836 495.79052734 C94.81958008 496.89702637 95.3190918 498.00352539 95.83374023 499.14355469 C99.26738002 506.72189686 102.77445229 514.26400752 106.32006836 521.79052734 C106.84600586 522.91088379 107.37194336 524.03124023 107.91381836 525.18554688 C114.77934589 539.77272992 122.00103653 554.07034047 129.8581543 568.14746094 C131.31011478 570.77253179 132.73006574 573.41241003 134.14038086 576.06005859 C141.41283799 589.67596384 149.29945632 602.87024411 157.38911438 616.00982666 C159.30037367 619.11678076 161.18914482 622.23477986 163.04272461 625.37646484 C176.42716906 647.96692699 191.67000929 669.72033116 207.32006836 690.79052734 C208.44520143 692.3203774 209.57019717 693.85032847 210.69506836 695.38037109 C211.79840619 696.87187 212.90254484 698.3627769 214.00756836 699.85302734 C214.51376709 700.53961426 215.01996582 701.22620117 215.54150391 701.93359375 C217.96878669 705.37544718 217.96878669 705.37544718 221.32006836 707.79052734 C220.01682393 705.04175627 218.5730675 702.61575426 216.77319336 700.16552734 C216.26554443 699.46991699 215.75789551 698.77430664 215.23486328 698.05761719 C214.68548096 697.30947754 214.13609863 696.56133789 213.57006836 695.79052734 C178.45779818 647.52647427 147.39907044 596.97631017 120.32006836 543.79052734 C119.73725098 542.65212402 119.15443359 541.5137207 118.55395508 540.34082031 C98.65319308 501.41266676 81.72284858 461.06685039 67.32006836 419.79052734 C67.08521729 419.11755615 66.85036621 418.44458496 66.60839844 417.7512207 C36.60796971 331.53395372 17.57928924 241.96387204 6.32006836 60.79052734 C5.99006836 60.79052734 5.66006836 60.79052734 5.32006836 60.79052734 Z M221.32006836 707.79052734 C223.05219664 711.77639073 225.67626816 715.06752508 228.32006836 718.47802734 C228.77124023 719.07164062 229.22241211 719.66525391 229.68725586 720.27685547 C232.07861412 723.51599395 232.07861412 723.51599395 235.32006836 725.79052734 C233.58794007 721.80466396 230.96386856 718.51352961 228.32006836 715.10302734 C227.86889648 714.50941406 227.41772461 713.91580078 226.95288086 713.30419922 C224.5615226 710.06506074 224.5615226 710.06506074 221.32006836 707.79052734 Z M235.32006836 725.79052734 C236.62902556 728.91250212 236.62902556 728.91250212 239.32006836 730.79052734 C238.01111116 727.66855257 238.01111116 727.66855257 235.32006836 725.79052734 Z M239.32006836 730.79052734 C240.68377135 733.78273003 242.26914919 736.08079263 244.44506836 738.54052734 C244.98389648 739.15412109 245.52272461 739.76771484 246.07788086 740.39990234 C246.48780273 740.85880859 246.89772461 741.31771484 247.32006836 741.79052734 C247.32006836 738.0307885 246.35464429 737.33375106 243.88256836 734.60302734 C243.24448242 733.88759766 242.60639648 733.17216797 241.94897461 732.43505859 C241.41143555 731.89236328 240.87389648 731.34966797 240.32006836 730.79052734 C239.99006836 730.79052734 239.66006836 730.79052734 239.32006836 730.79052734 Z M248.32006836 741.79052734 C249.68990339 744.9516851 250.30913216 745.78323654 253.32006836 747.79052734 C251.95023333 744.62936959 251.33100456 743.79781815 248.32006836 741.79052734 Z M253.32006836 747.79052734 C254.68990339 750.9516851 255.30913216 751.78323654 258.32006836 753.79052734 C256.95023333 750.62936959 256.33100456 749.79781815 253.32006836 747.79052734 Z M259.32006836 754.79052734 C260.7133941 758.15773122 262.29899696 759.77647975 265.32006836 761.79052734 C263.92674262 758.42332347 262.34113976 756.80457494 259.32006836 754.79052734 Z M266.32006836 762.79052734 C267.7133941 766.15773122 269.29899696 767.77647975 272.32006836 769.79052734 C270.92674262 766.42332347 269.34113976 764.80457494 266.32006836 762.79052734 Z M273.32006836 770.79052734 C274.81104493 774.58574044 277.07707685 776.40095465 280.32006836 778.79052734 C278.82909178 774.99531424 276.56305987 773.18010004 273.32006836 770.79052734 Z M283.32006836 781.79052734 C284.70195289 785.00096616 286.24428739 786.839891 288.94506836 789.04052734 C289.57670898 789.56130859 290.20834961 790.08208984 290.85913086 790.61865234 C291.34124023 791.00537109 291.82334961 791.39208984 292.32006836 791.79052734 C290.93818383 788.58008853 289.39584933 786.74116369 286.69506836 784.54052734 C286.06342773 784.01974609 285.43178711 783.49896484 284.78100586 782.96240234 C284.29889648 782.57568359 283.81678711 782.18896484 283.32006836 781.79052734 Z M299.32006836 798.79052734 C300.6002971 801.60022202 301.92720965 803.64445115 304.11743164 805.81494141 C304.67786163 806.37522034 305.23829163 806.93549927 305.81570435 807.51275635 C306.4178476 808.10457703 307.01999084 808.69639771 307.64038086 809.30615234 C308.25904022 809.92198181 308.87769958 810.53781128 309.5151062 811.17230225 C311.48710649 813.1331307 313.46595573 815.08688035 315.44506836 817.04052734 C316.78537 818.37079533 318.12521919 819.70151934 319.46459961 821.03271484 C322.74453425 824.29062885 326.03062778 827.54221268 329.32006836 830.79052734 C329.98006836 830.46052734 330.64006836 830.13052734 331.32006836 829.79052734 C326.92698198 825.37217786 322.53005212 820.95768113 318.13037109 816.54589844 C316.63272784 815.04321262 315.13598145 813.53963242 313.64013672 812.03515625 C311.49541127 809.87836184 309.34752776 807.72475784 307.19897461 805.57177734 C306.52604874 804.89369019 305.85312286 804.21560303 305.1598053 803.51696777 C304.53923752 802.89632446 303.91866974 802.27568115 303.27929688 801.63623047 C302.73080582 801.0855188 302.18231476 800.53480713 301.61720276 799.96740723 C300.48854417 798.67853683 300.48854417 798.67853683 299.32006836 798.79052734 Z " fill="#FFC400" transform="translate(386.679931640625,756.20947265625)"/>
<path d="M0 0 C11.28361345 2.64953562 22.26985817 5.85722118 33.25 9.5625 C34.41486938 9.95358444 34.41486938 9.95358444 35.60327148 10.35256958 C94.70993304 30.24284397 149.45903778 59.14165411 199 97 C199.63679687 97.4851709 200.27359375 97.9703418 200.9296875 98.47021484 C213.21264562 107.86706651 224.89272869 117.93675939 236.23046875 128.44921875 C238.64383164 130.67196341 241.0943591 132.83877817 243.5625 135 C248.7762661 139.67880313 253.72696216 144.61759262 258.6875 149.5625 C259.49582275 150.36623047 260.30414551 151.16996094 261.13696289 151.99804688 C265.40727755 156.27933695 269.52183998 160.63558137 273.46508789 165.2199707 C275.54736041 167.63477092 277.71147853 169.97050622 279.875 172.3125 C284.79507305 177.71493316 289.44355013 183.28914757 294 189 C294.40798828 189.50837402 294.81597656 190.01674805 295.23632812 190.54052734 C321.23629933 222.98094943 343.32436562 257.86683174 362 295 C362.48678223 295.95890137 362.97356445 296.91780273 363.47509766 297.90576172 C392.0373827 354.45626281 408.93750343 416.32293367 417 479 C417.24991699 480.91643311 417.24991699 480.91643311 417.50488281 482.87158203 C422.62268646 524.3173149 422.42409346 568.60925529 417 610 C416.83116858 611.3594309 416.66322161 612.71897189 416.49609375 614.07861328 C406.54233047 694.14720361 378.74071874 770.08080877 337 839 C332.78573403 837.61409183 330.34496904 835.71556557 327.22900391 832.58544922 C326.31100006 831.67044647 325.39299622 830.75544373 324.44717407 829.81271362 C323.45674024 828.81026541 322.46654232 827.80758408 321.4765625 826.8046875 C320.44731222 825.77237505 319.41746614 824.74065634 318.38705444 823.70950317 C316.22901418 821.54686542 314.07596649 819.37942202 311.92675781 817.20800781 C309.19127274 814.44438343 306.44732163 811.68937282 303.69997597 808.93754387 C301.05985387 806.29222422 298.42440893 803.64226324 295.7890625 800.9921875 C295.29486439 800.49610867 294.80066628 800.00002983 294.29149246 799.4889183 C289.1868012 794.35913903 284.16627407 789.20616204 279.46551514 783.70115662 C276.94599853 780.7765247 274.27345705 777.99487258 271.625 775.1875 C266.91846726 770.16311299 262.47141936 765.01016609 258.16796875 759.6328125 C255.90967537 756.89030846 253.54218666 754.2906241 251.125 751.6875 C246.86270733 747.05572066 242.95749507 742.23685427 239.1081543 737.26464844 C236.1275957 733.41802092 233.0741421 729.6582742 229.9375 725.9375 C224.7625686 719.76832981 219.85683538 713.41897541 215 707 C214.53335938 706.38640625 214.06671875 705.7728125 213.5859375 705.140625 C206.37360208 695.6527399 199.4009211 686.01854698 192.57714844 676.24804688 C190.96068823 673.94396552 189.3295228 671.65089464 187.6953125 669.359375 C166.94139706 640.15961641 148.3273323 609.34184238 131 578 C130.50677246 577.11650879 130.01354492 576.23301758 129.50537109 575.32275391 C101.46589976 525.04602941 77.96295729 472.34514302 59 418 C58.76514893 417.32702881 58.53029785 416.65405762 58.28833008 415.96069336 C28.21709944 329.53995104 9.02742914 239.64351227 0 0 Z " fill="#FF9100" transform="translate(394,758)"/>
<path d="M0 0 C4.16784814 3.5195162 8.23454761 7.11966646 12.25 10.8125 C16.81307264 14.98231194 21.51783104 18.91348026 26.328125 22.79296875 C28.8985905 24.91623338 31.35919363 27.11811849 33.8125 29.375 C38.1877959 33.35755281 42.74729266 37.0181807 47.41870117 40.64111328 C51.21512215 43.58775546 54.95809437 46.58793949 58.66894531 49.64160156 C79.22851443 66.54704856 100.96495011 82.08274272 123 97 C123.59280762 97.40250977 124.18561523 97.80501953 124.79638672 98.21972656 C180.38928584 135.89781779 239.85663007 168.40351776 301.6875 194.625 C302.70704773 195.05741501 302.70704773 195.05741501 303.74719238 195.49856567 C311.63230237 198.83310495 319.54724795 202.01515634 327.59692383 204.93505859 C330 206 330 206 331 208 C310.88023501 216.65029665 290.67454329 224.7517932 270 232 C268.79585449 232.4237793 267.59170898 232.84755859 266.35107422 233.28417969 C206.01866136 254.36447219 143.09095738 267.31400813 79.4375 272.6875 C78.36449142 272.77890762 78.36449142 272.77890762 77.26980591 272.87216187 C57.1658438 274.55975781 37.04668224 275.23805846 16.875 275.25 C15.30360764 275.25101212 15.30360764 275.25101212 13.70046997 275.25204468 C-71.86187778 275.16589701 -157.23781163 259.42601421 -260 221 C-257.32614445 219.21742963 -254.85132142 217.95255672 -251.93359375 216.63671875 C-250.90435791 216.16911133 -249.87512207 215.70150391 -248.81469727 215.21972656 C-247.70022217 214.7140918 -246.58574707 214.20845703 -245.4375 213.6875 C-198.32123086 192.05478203 -154.6500177 165.48069676 -115 132 C-113.79689271 130.99346842 -112.59376837 129.98695721 -111.390625 128.98046875 C-98.6728176 118.27628441 -86.71165396 106.78863819 -74.9375 95.0625 C-73.75957886 93.89158813 -73.75957886 93.89158813 -72.55786133 92.69702148 C-68.38009286 88.5076245 -64.36776522 84.23300747 -60.50805664 79.7487793 C-58.63685549 77.57888876 -56.69397647 75.47969893 -54.75 73.375 C-50.2007767 68.33313661 -46.0309728 63.04817302 -41.875 57.68359375 C-39.98957165 55.25295809 -38.07520473 52.85161533 -36.125 50.47265625 C-24.67804628 36.48512591 -14.59161644 21.54749882 -4.64257812 6.47143555 C-4.17658203 5.76543213 -3.71058594 5.05942871 -3.23046875 4.33203125 C-2.61788208 3.39967651 -2.61788208 3.39967651 -1.99291992 2.44848633 C-1 1 -1 1 0 0 Z " fill="#FF9100" transform="translate(729,1602)"/>
</svg>
