<svg xmlns="http://www.w3.org/2000/svg" xmlns:xlink="http://www.w3.org/1999/xlink" viewBox="0 0 450 100"><defs><style>.cls-1{fill:none;}.cls-2{isolation:isolate;}.cls-3{clip-path:url(#clip-path);}.cls-12,.cls-17,.cls-4{mix-blend-mode:multiply;}.cls-4{fill:url(#radial-gradient);}.cls-5{fill:url(#linear-gradient);}.cls-6{fill:url(#linear-gradient-2);}.cls-7{fill:url(#linear-gradient-3);}.cls-8{fill:url(#linear-gradient-4);}.cls-9{fill:#df2e2b;}.cls-10{fill:#fff;}.cls-11{fill:#d9e8f2;}.cls-12{fill:url(#linear-gradient-5);}.cls-13{fill:#d9d9d9;}.cls-14{fill:#86919c;}.cls-15{fill:#4f6a88;}.cls-16{fill:#010000;}.cls-17{fill:url(#linear-gradient-6);}.cls-18{fill:#eb1428;}.cls-19{fill:#020000;}.cls-20{fill:url(#linear-gradient-7);}.cls-21{fill:url(#linear-gradient-8);}.cls-22{fill:#838688;}.cls-23{fill:#cbcbc9;}.cls-24{fill:#8d9aa3;}.cls-25{fill:#bec9d3;}.cls-26{fill:#e2e7ed;}.cls-27{fill:url(#linear-gradient-9);}.cls-28{fill:url(#linear-gradient-10);}.cls-29{fill:#9fcc87;}.cls-30{fill:#482409;}</style><clipPath id="clip-path"><rect class="cls-1" y="68.81" width="450" height="101.79"/></clipPath><radialGradient id="radial-gradient" cx="225" cy="365.96" r="297.14" gradientUnits="userSpaceOnUse"><stop offset="0.55" stop-color="#dae8f2" stop-opacity="0"/><stop offset="1" stop-color="#dae8f2"/></radialGradient><linearGradient id="linear-gradient" x1="264.05" y1="117.53" x2="428.27" y2="117.53" gradientUnits="userSpaceOnUse"><stop offset="0" stop-color="#000000"/><stop offset="0.57" stop-color="#000000"/></linearGradient><linearGradient id="linear-gradient-2" x1="221.71" y1="95.82" x2="236.33" y2="95.82" xlink:href="#linear-gradient"/><linearGradient id="linear-gradient-3" x1="31.03" y1="130.99" x2="91.48" y2="130.99" xlink:href="#linear-gradient"/><linearGradient id="linear-gradient-4" x1="100.65" y1="93.21" x2="258.34" y2="93.21" xlink:href="#linear-gradient"/><linearGradient id="linear-gradient-5" x1="-2042.82" y1="610.5" x2="-2042.81" y2="610.55" gradientTransform="matrix(35.23, -224.58, -224.58, -35.23, 209251.23, -437240.13)" gradientUnits="userSpaceOnUse"><stop offset="0" stop-color="#dae8f2" stop-opacity="0"/><stop offset="1" stop-color="#dae8f2"/></linearGradient><linearGradient id="linear-gradient-6" x1="226.96" y1="40.58" x2="229.48" y2="12.17" gradientUnits="userSpaceOnUse"><stop offset="0.14" stop-color="#dae8f2" stop-opacity="0"/><stop offset="0.95" stop-color="#dae8f2"/></linearGradient><linearGradient id="linear-gradient-7" x1="179.23" y1="20.57" x2="215.47" y2="32.09" gradientTransform="translate(18.8 -5.04)" gradientUnits="userSpaceOnUse"><stop offset="0" stop-color="#fff"/><stop offset="0.67" stop-color="#edf0f4"/><stop offset="1" stop-color="#e2e7ed"/></linearGradient><linearGradient id="linear-gradient-8" x1="178.56" y1="22.66" x2="178.57" y2="22.67" xlink:href="#linear-gradient-7"/><linearGradient id="linear-gradient-9" x1="233.54" y1="27.16" x2="244.72" y2="27.16" xlink:href="#linear-gradient"/><linearGradient id="linear-gradient-10" x1="233.54" y1="27.29" x2="244.68" y2="27.29" xlink:href="#linear-gradient"/></defs><g class="cls-2"><g id="Layer_1" data-name="Layer 1"><path d="M169.87,18.79c2.54-.39,5.69-.85,9.17-1.29a126.31,126.31,0,0,1,16.06-.75V16.5a23.43,23.43,0,0,1-7.77-2.26C184.44,12.64,170,1.52,169.08.88A4.65,4.65,0,0,0,166.23,0h-4.59s8,18,8.23,18.79"/><path class="cls-9" d="M173.71,13.64c0-.29.15-.35.44-.19l1,.59c0-.16.16-.3.47-.24s.61.14.61.14-.18-.39-.25-.56,0-.47.13-.51l-.32-.22c-.27-.2-.21-.39.07-.5l.82-.36a.39.39,0,0,1-.12-.59c.18-.28.47-.66.47-.66h-.83a.37.37,0,0,1-.37-.42l-.84.58c-.29.2-.55,0-.52-.33.08-.54.14-1.13.14-1.13a.42.42,0,0,1-.63-.19c-.2-.45-.44-1-.44-1s-.24.52-.43,1a.43.43,0,0,1-.63.19s.06.59.13,1.13c0,.34-.22.53-.51.33l-.84-.58a.38.38,0,0,1-.37.42h-.83s.29.38.47.66a.4.4,0,0,1-.12.59l.81.36c.27.11.33.3.05.5l-.32.22c.14.05.27.2.14.51l-.25.56.6-.14c.31-.07.45.08.47.24l1.05-.59c.27-.16.43-.1.43.19v.72a2.3,2.3,0,0,1-.23,1.12,4,4,0,0,1-3.63-3.89A4,4,0,1,1,174,15.45V16a4.46,4.46,0,0,0,4.15-4.38,4.6,4.6,0,0,0-9.19,0,4.45,4.45,0,0,0,3.71,4.32,1.12,1.12,0,0,1,.77.36,4.86,4.86,0,0,0,.29-1.8v-.83Z"/><path d="M162.78,22h.72V20h-.72a.12.12,0,0,0-.12.13v1.71a.12.12,0,0,0,.12.13"/><path class="cls-10" d="M247.21,28.77H205.48c-18.95,0-42-6.63-42-6.63V19.88s6.69-1.27,15.55-2.38c3-.37,6.94-.75,10.89-1,6.85,0,7.8,0,15.55,0h41.73l20.74.2c11,0,15.26,2.84,16.14,3.52.48.37,1.4,1.1,2.32,1.91,1.42,1.18,2.71,2.41,2.71,3.22,0,2.32-8.64,3.1-12.23,3.25-4.2.18-13.61.16-13.61.16"/><path class="cls-11" d="M205.48,26.74l41.73.24v1.69l-41.73.1h0c-18.95,0-42-6.63-42-6.63v-2S186.53,26.74,205.48,26.74Z"/><path class="cls-12" d="M182.6,21.19,171.89,22l-1.23,2c1.9.44,4.07.92,6.54,1.43a44,44,0,0,0,5.4-4.23Z"/><path class="cls-13" d="M191,20.08h-2.05a.33.33,0,0,0-.33.33V24a.33.33,0,0,0,.33.33H191a.33.33,0,0,0,.33-.33V20.41a.33.33,0,0,0-.33-.33m0,0a.34.34,0,0,1,.34.34V24a.34.34,0,0,1-.34.34h-2.05a.34.34,0,0,1-.34-.34V20.41a.34.34,0,0,1,.34-.34H191"/><path class="cls-13" d="M250.78,20.08h-2.05a.33.33,0,0,0-.33.33V24a.33.33,0,0,0,.33.33h2.05a.33.33,0,0,0,.33-.33V20.41a.33.33,0,0,0-.33-.33m0,0a.34.34,0,0,1,.34.34V24a.34.34,0,0,1-.34.34h-2.05a.34.34,0,0,1-.34-.34V20.41a.34.34,0,0,1,.34-.34h2.05"/><path class="cls-13" d="M277.07,20.08H275a.33.33,0,0,0-.33.33V24a.33.33,0,0,0,.33.33h2.05a.33.33,0,0,0,.33-.33V20.41a.33.33,0,0,0-.33-.33m0,0a.35.35,0,0,1,.35.34V24a.35.35,0,0,1-.35.34H275a.34.34,0,0,1-.34-.34V20.41a.34.34,0,0,1,.34-.34h2.05"/><path class="cls-14" d="M193.05,22.71h-.52a.09.09,0,0,1-.09-.09v-.84a.09.09,0,0,1,.09-.09h.52a.09.09,0,0,1,.08.09v.84a.09.09,0,0,1-.08.09"/><path class="cls-14" d="M194.43,22.71h-.52a.09.09,0,0,1-.08-.09v-.84a.09.09,0,0,1,.08-.09h.52a.09.09,0,0,1,.09.09v.84a.09.09,0,0,1-.09.09"/><path class="cls-14" d="M195.81,22.71h-.51a.09.09,0,0,1-.09-.09v-.84a.09.09,0,0,1,.09-.09h.51a.09.09,0,0,1,.09.09v.84a.09.09,0,0,1-.09.09"/><path class="cls-14" d="M197.2,22.71h-.52a.09.09,0,0,1-.09-.09v-.84a.09.09,0,0,1,.09-.09h.52a.09.09,0,0,1,.08.09v.84a.09.09,0,0,1-.08.09"/><path class="cls-14" d="M198.58,22.71h-.52a.08.08,0,0,1-.08-.09v-.84a.08.08,0,0,1,.08-.09h.52a.08.08,0,0,1,.08.09v.84a.08.08,0,0,1-.08.09"/><path class="cls-14" d="M200,22.71h-.52a.09.09,0,0,1-.08-.09v-.84a.09.09,0,0,1,.08-.09H200a.09.09,0,0,1,.09.09v.84a.09.09,0,0,1-.09.09"/><path class="cls-14" d="M201.34,22.71h-.51a.09.09,0,0,1-.09-.09v-.84a.09.09,0,0,1,.09-.09h.51a.09.09,0,0,1,.09.09v.84a.09.09,0,0,1-.09.09"/><path class="cls-14" d="M202.73,22.71h-.52a.09.09,0,0,1-.09-.09v-.84a.09.09,0,0,1,.09-.09h.52a.09.09,0,0,1,.08.09v.84a.09.09,0,0,1-.08.09"/><path class="cls-14" d="M204.11,22.71h-.52a.08.08,0,0,1-.08-.09v-.84a.08.08,0,0,1,.08-.09h.52a.08.08,0,0,1,.08.09v.84a.08.08,0,0,1-.08.09"/><path class="cls-14" d="M208.7,22.71h-.52a.08.08,0,0,1-.08-.09v-.84a.08.08,0,0,1,.08-.09h.52a.08.08,0,0,1,.08.09v.84a.08.08,0,0,1-.08.09"/><path class="cls-14" d="M210.08,22.71h-.52a.09.09,0,0,1-.08-.09v-.84a.09.09,0,0,1,.08-.09h.52a.09.09,0,0,1,.09.09v.84a.09.09,0,0,1-.09.09"/><path class="cls-14" d="M211.46,22.71H211a.09.09,0,0,1-.09-.09v-.84a.09.09,0,0,1,.09-.09h.51a.09.09,0,0,1,.09.09v.84a.09.09,0,0,1-.09.09"/><path class="cls-14" d="M212.85,22.71h-.52a.09.09,0,0,1-.09-.09v-.84a.09.09,0,0,1,.09-.09h.52a.09.09,0,0,1,.08.09v.84a.09.09,0,0,1-.08.09"/><path class="cls-14" d="M214.23,22.71h-.52a.08.08,0,0,1-.08-.09v-.84a.08.08,0,0,1,.08-.09h.52a.08.08,0,0,1,.08.09v.84a.08.08,0,0,1-.08.09"/><path class="cls-14" d="M215.61,22.71h-.52a.09.09,0,0,1-.08-.09v-.84a.09.09,0,0,1,.08-.09h.52a.09.09,0,0,1,.09.09v.84a.09.09,0,0,1-.09.09"/><path class="cls-14" d="M217,22.71h-.51a.09.09,0,0,1-.09-.09v-.84a.09.09,0,0,1,.09-.09H217a.09.09,0,0,1,.09.09v.84a.09.09,0,0,1-.09.09"/><path class="cls-14" d="M218.38,22.71h-.52a.09.09,0,0,1-.09-.09v-.84a.09.09,0,0,1,.09-.09h.52a.09.09,0,0,1,.08.09v.84a.09.09,0,0,1-.08.09"/><path class="cls-14" d="M219.76,22.71h-.52a.09.09,0,0,1-.08-.09v-.84a.09.09,0,0,1,.08-.09h.52a.09.09,0,0,1,.09.09v.84a.09.09,0,0,1-.09.09"/><path class="cls-14" d="M224.35,22.71h-.52a.08.08,0,0,1-.08-.09v-.84a.08.08,0,0,1,.08-.09h.52a.08.08,0,0,1,.08.09v.84a.08.08,0,0,1-.08.09"/><path class="cls-14" d="M225.73,22.71h-.52a.09.09,0,0,1-.08-.09v-.84a.09.09,0,0,1,.08-.09h.52a.09.09,0,0,1,.09.09v.84a.09.09,0,0,1-.09.09"/><path class="cls-14" d="M227.11,22.71h-.51a.09.09,0,0,1-.09-.09v-.84a.09.09,0,0,1,.09-.09h.51a.09.09,0,0,1,.09.09v.84a.09.09,0,0,1-.09.09"/><path class="cls-14" d="M228.5,22.71H228a.09.09,0,0,1-.09-.09v-.84a.09.09,0,0,1,.09-.09h.52a.09.09,0,0,1,.08.09v.84a.09.09,0,0,1-.08.09"/><path class="cls-14" d="M229.88,22.71h-.52a.09.09,0,0,1-.08-.09v-.84a.09.09,0,0,1,.08-.09h.52a.09.09,0,0,1,.09.09v.84a.09.09,0,0,1-.09.09"/><path class="cls-14" d="M231.26,22.71h-.51a.09.09,0,0,1-.09-.09v-.84a.09.09,0,0,1,.09-.09h.51a.09.09,0,0,1,.09.09v.84a.09.09,0,0,1-.09.09"/><path class="cls-14" d="M232.65,22.71h-.52a.09.09,0,0,1-.09-.09v-.84a.09.09,0,0,1,.09-.09h.52a.09.09,0,0,1,.08.09v.84a.09.09,0,0,1-.08.09"/><path class="cls-14" d="M234,22.71h-.52a.08.08,0,0,1-.08-.09v-.84a.08.08,0,0,1,.08-.09H234a.08.08,0,0,1,.08.09v.84a.08.08,0,0,1-.08.09"/><path class="cls-14" d="M235.41,22.71h-.52a.09.09,0,0,1-.08-.09v-.84a.09.09,0,0,1,.08-.09h.52a.09.09,0,0,1,.09.09v.84a.09.09,0,0,1-.09.09"/><path class="cls-14" d="M263.76,22.71h-.52a.09.09,0,0,1-.09-.09v-.84a.09.09,0,0,1,.09-.09h.52a.09.09,0,0,1,.08.09v.84a.09.09,0,0,1-.08.09"/><path class="cls-14" d="M265.14,22.71h-.52a.08.08,0,0,1-.08-.09v-.84a.08.08,0,0,1,.08-.09h.52a.08.08,0,0,1,.08.09v.84a.08.08,0,0,1-.08.09"/><path class="cls-14" d="M266.52,22.71H266a.09.09,0,0,1-.08-.09v-.84a.09.09,0,0,1,.08-.09h.52a.09.09,0,0,1,.09.09v.84a.09.09,0,0,1-.09.09"/><path class="cls-14" d="M267.9,22.71h-.51a.09.09,0,0,1-.09-.09v-.84a.09.09,0,0,1,.09-.09h.51a.09.09,0,0,1,.09.09v.84a.09.09,0,0,1-.09.09"/><path class="cls-14" d="M269.29,22.71h-.52a.09.09,0,0,1-.09-.09v-.84a.09.09,0,0,1,.09-.09h.52a.09.09,0,0,1,.08.09v.84a.09.09,0,0,1-.08.09"/><path class="cls-14" d="M270.67,22.71h-.52a.09.09,0,0,1-.08-.09v-.84a.09.09,0,0,1,.08-.09h.52a.09.09,0,0,1,.09.09v.84a.09.09,0,0,1-.09.09"/><path class="cls-14" d="M272.05,22.71h-.51a.09.09,0,0,1-.09-.09v-.84a.09.09,0,0,1,.09-.09h.51a.09.09,0,0,1,.09.09v.84a.09.09,0,0,1-.09.09"/><path class="cls-14" d="M273.44,22.71h-.52a.09.09,0,0,1-.09-.09v-.84a.09.09,0,0,1,.09-.09h.52a.09.09,0,0,1,.08.09v.84a.09.09,0,0,1-.08.09"/><path class="cls-14" d="M240,22.71h-.52a.09.09,0,0,1-.08-.09v-.84a.09.09,0,0,1,.08-.09H240a.09.09,0,0,1,.09.09v.84a.09.09,0,0,1-.09.09"/><path class="cls-14" d="M241.38,22.71h-.51a.09.09,0,0,1-.09-.09v-.84a.09.09,0,0,1,.09-.09h.51a.09.09,0,0,1,.09.09v.84a.09.09,0,0,1-.09.09"/><path class="cls-14" d="M242.77,22.71h-.52a.09.09,0,0,1-.09-.09v-.84a.09.09,0,0,1,.09-.09h.52a.09.09,0,0,1,.08.09v.84a.09.09,0,0,1-.08.09"/><path class="cls-14" d="M244.15,22.71h-.52a.08.08,0,0,1-.08-.09v-.84a.08.08,0,0,1,.08-.09h.52a.08.08,0,0,1,.08.09v.84a.08.08,0,0,1-.08.09"/><path class="cls-14" d="M245.53,22.71H245a.09.09,0,0,1-.08-.09v-.84a.09.09,0,0,1,.08-.09h.52a.09.09,0,0,1,.09.09v.84a.09.09,0,0,1-.09.09"/><path class="cls-14" d="M246.91,22.71h-.51a.09.09,0,0,1-.09-.09v-.84a.09.09,0,0,1,.09-.09h.51a.09.09,0,0,1,.09.09v.84a.09.09,0,0,1-.09.09"/><path class="cls-14" d="M253.29,22.71h-.52a.08.08,0,0,1-.08-.09v-.84a.08.08,0,0,1,.08-.09h.52a.08.08,0,0,1,.08.09v.84a.08.08,0,0,1-.08.09"/><path class="cls-14" d="M254.67,22.71h-.52a.09.09,0,0,1-.08-.09v-.84a.09.09,0,0,1,.08-.09h.52a.09.09,0,0,1,.09.09v.84a.09.09,0,0,1-.09.09"/><path class="cls-14" d="M256.05,22.71h-.51a.09.09,0,0,1-.09-.09v-.84a.09.09,0,0,1,.09-.09h.51a.09.09,0,0,1,.09.09v.84a.09.09,0,0,1-.09.09"/><path class="cls-14" d="M257.44,22.71h-.52a.09.09,0,0,1-.09-.09v-.84a.09.09,0,0,1,.09-.09h.52a.09.09,0,0,1,.08.09v.84a.09.09,0,0,1-.08.09"/><path class="cls-14" d="M258.82,22.71h-.52a.08.08,0,0,1-.08-.09v-.84a.08.08,0,0,1,.08-.09h.52a.08.08,0,0,1,.08.09v.84a.08.08,0,0,1-.08.09"/><path class="cls-14" d="M260.2,22.71h-.52a.09.09,0,0,1-.08-.09v-.84a.09.09,0,0,1,.08-.09h.52a.09.09,0,0,1,.09.09v.84a.09.09,0,0,1-.09.09"/><path class="cls-10" d="M166.78,18.7c.34.06,9.25,1.71,11.39,2.19a16.61,16.61,0,0,0,4.43.3s-1.78-.51-2.41-.6-10-1.75-13-2.29a8,8,0,0,0-1.81-.16c-.78,0-4.29.42-4.29.42l4.07,0a10.07,10.07,0,0,1,1.65.18"/><path class="cls-15" d="M182.6,21.19a16.61,16.61,0,0,1-4.43-.3c-2.14-.48-11-2.13-11.39-2.19a10.07,10.07,0,0,0-1.65-.18l-4.07,0s4.44,1.42,6.73,2.17c1.51.49,4.1,1.29,4.1,1.29h7.79a5,5,0,0,0,2.92-.83"/><path class="cls-16" d="M183.55,26.62c4.84.94,9.85,2.07,13.79,2.07h65.94s3.79,0,7.63,0c2,0,4,0,5.52-.11h.46c.61,0,1.36-.07,2.2-.14,1.37-.1,3-.27,4.44-.52a21.58,21.58,0,0,0,3.66-.89H208.5l-25.27-.42h.2l.12,0"/><path class="cls-17" d="M284.24,24.74c-.88-.67-5.13-3.52-16.15-3.52H194.57c-5.47,0-14.14,1-17.32,1.35-2.39.27-5.32.74-7.7,1.15,7.65,1.7,21.75,4.76,27.94,5h65.94s9.41,0,13.61-.16a41.94,41.94,0,0,0,10-1.47l-.5-.42C285.64,25.85,284.72,25.12,284.24,24.74Z"/><path d="M280.4,20.94a2.65,2.65,0,0,0,2.77,2h4.22l-1-.86c-.53-.44-1.45-1.17-1.47-1.19Z"/><path class="cls-10" d="M283.76,21.14h0l-.76.06c-.08,0-.1.07-.13.15a5.74,5.74,0,0,0-.13.65.28.28,0,0,0,.13.28l.58.28a.6.6,0,0,0,.29.07l1.39-.09c.2,0,.07-.21,0-.3l-1.08-1a.3.3,0,0,0-.22-.08h0"/><path class="cls-10" d="M284.3,21.26c.08.09,1.07,1,1.17,1.1s.14.17.32.18l.88.05c.14,0,.17,0,.11,0s-1.49-1.27-1.58-1.3a7.07,7.07,0,0,0-.72-.09h-.05c-.09,0-.19,0-.13.08"/><path class="cls-18" d="M270,25a1.6,1.6,0,0,0,1.32,1.53.41.41,0,0,1,.28.12,1.66,1.66,0,0,0,.09-.63v-.3c0-.1.06-.12.16-.07l.37.21c0-.06.06-.11.16-.08l.22.05-.09-.2c0-.11,0-.17.05-.18l-.12-.08c-.1-.07-.07-.14,0-.18l.29-.13a.14.14,0,0,1,0-.21l.17-.23h-.3a.14.14,0,0,1-.13-.15s-.17.13-.3.21-.2,0-.18-.12.05-.4.05-.4a.16.16,0,0,1-.23-.06l-.15-.34s-.09.18-.16.34a.15.15,0,0,1-.22.06l0,.4c0,.12-.08.19-.18.12l-.3-.21c0,.06,0,.15-.13.15h-.29s.1.13.16.23a.14.14,0,0,1,0,.21l.29.13c.1,0,.12.11,0,.18l-.11.08c.05,0,.09.07,0,.18s-.09.2-.09.2l.22-.05c.11,0,.16,0,.17.08l.37-.21c.1-.05.15,0,.15.07V26a.92.92,0,0,1-.08.4,1.46,1.46,0,1,1,.29,0v.19A1.56,1.56,0,1,0,270,25"/><path class="cls-19" d="M251.8,19.5H252c.6,0,.73-.08.73-.33s-.27-.27-.66-.27h-.3Zm-.49,1V18.66h1.09c.59,0,.85.2.87.46a.42.42,0,0,1-.13.32.78.78,0,0,1-.33.2l.83.85H253l-.73-.75h-.5v.75Z"/><path class="cls-19" d="M247.16,19.76h.78l-.39-.73Zm-.77.74,1-1.84h.6l1,1.84h-.61l-.26-.5h-1l-.26.5Z"/><rect class="cls-19" x="249.63" y="18.66" width="0.53" height="1.83"/><path class="cls-19" d="M257.4,20.43a3.07,3.07,0,0,1-.92.12,1.72,1.72,0,0,1-1-.26.88.88,0,0,1,0-1.43,1.94,1.94,0,0,1,1.08-.25,5.22,5.22,0,0,1,.88.07V19a3.9,3.9,0,0,0-.87-.12,1,1,0,0,0-.66.19.63.63,0,0,0-.23.52.62.62,0,0,0,.25.53,1.13,1.13,0,0,0,.69.18,2.27,2.27,0,0,0,.82-.13Z"/><path class="cls-19" d="M258.82,19.76h.78l-.39-.73Zm-.77.74,1-1.84h.6l1,1.84H260l-.26-.5h-1l-.26.5Z"/><path class="cls-19" d="M265.31,19.76h.77L265.7,19Zm-.78.74,1-1.84h.6l1,1.84h-.61l-.26-.5h-1l-.27.5Z"/><path class="cls-19" d="M271.46,19.76h.78l-.39-.73Zm-.78.74,1-1.84h.59l1,1.84h-.61l-.26-.5h-1l-.27.5Z"/><polygon class="cls-19" points="261.34 20.5 261.34 18.66 261.95 18.66 263.35 19.97 263.35 18.66 263.78 18.66 263.78 20.5 263.23 20.5 261.77 19.13 261.77 20.5 261.34 20.5"/><path class="cls-19" d="M268.34,20.23h.39a.92.92,0,0,0,.62-.16.63.63,0,0,0,.2-.51.59.59,0,0,0-.16-.43.55.55,0,0,0-.27-.17,1.72,1.72,0,0,0-.46-.05h-.32Zm-.52.26V18.66h1.09a1.52,1.52,0,0,1,.89.23.75.75,0,0,1,.31.65.84.84,0,0,1-.33.71,1.49,1.49,0,0,1-.93.24Z"/><path class="cls-20" d="M197.39,17.63h0m.07,0h0c-.12,0-.05,0,0,0h.09l-.06,0h.11c.25.06.66.18.88.21a18.52,18.52,0,0,1,2.94.52c2.45.68,6,1.66,8.94,2.51s5.48,1.6,5.8,1.77c.87.47,1.19.79,1.27,1l.17.48c0,.13.09.28.15.43l.55,1.59a17,17,0,0,1,2-.05,9.72,9.72,0,0,1,1.71.17,39.12,39.12,0,0,0,4,.58c.87.08,1.78.13,2.69.13,2.56,0,6.79-3.73,6.79-3.73l-.46-.07-.27-.05-.19,0-9.16-1.55-5.22-.88-3.73-.63c-.12,0-1.2-.18-1.33-.2l-7.81-1.32-.83-.13-1-.15c-1.14-.17-3.73-.33-5.08-.55a10,10,0,0,0-1.68-.11c-.63,0-1.17,0-1.3,0"/><path class="cls-21" d="M197.36,17.63h0"/><path class="cls-22" d="M208.26,18.66c.35.08-.13.19-.13.19l22,4.1s.76,0,.77-.12,0-.35-.6-.44c-21.51-3.66-22-3.73-22-3.73h0"/><path class="cls-23" d="M215.45,22c-.46,0-.89.06-.89.06l-1.68.45-.16,0-.13,0-.09,0a.49.49,0,0,1,0,.11l1.47.12,1.1.09.47,0a9.21,9.21,0,0,0,1.15,0l.53-.05a9.09,9.09,0,0,0,1.79-.39h0l.13,0a10.4,10.4,0,0,0-1.31-.18l-1.31-.15L216.2,22a4.27,4.27,0,0,0-.54,0h-.21"/><path class="cls-23" d="M215.47,21.28h0m0,0h0m-5.23-.12-.46.15-.7.24-.14.05a.36.36,0,0,1,0,.09s.48,0,1.12.06a15.56,15.56,0,0,0,1.8,0l.4,0c.33-.05.9-.13,1.46-.19.73-.1,1.45-.18,1.65-.2h.05c-.1,0-.5,0-1-.05l-1.56-.12L211.65,21l-.94,0-.46.16"/><path class="cls-23" d="M219.53,23.82l-1.62,0h-.42l-1.11.47v.08s0,0,0,0h.06l1.89.29.88.12,1.14.09,1.55,0,.33,0a15.09,15.09,0,0,0,1.79-.43l-.33-.07-.33-.06-.33-.06-.33-.06-1.6-.24-1.39-.2h-.21"/><polygon class="cls-24" points="232.12 29.38 227.12 27.71 227.12 27.58 232.12 25.9 232.12 29.38"/><polygon class="cls-25" points="231.34 26.01 231.34 29.25 232.76 29.72 232.77 25.56 231.34 26.01"/><polygon class="cls-26" points="232.71 24.53 232.7 29.77 234.19 30.27 233.87 24.2 232.71 24.53"/><path d="M232.87,30.35h0"/><polygon points="232.87 30.36 232.87 30.36 232.87 30.36 232.87 30.36"/><path class="cls-26" d="M243.49,30.62a6,6,0,0,0,.85-.13.61.61,0,0,0,.48-.52l.38-5.27s0-.28-.66-.55a5.28,5.28,0,0,0-.74-.2Z"/><path class="cls-27" d="M244.72,24.05s-3.7-2.05-11.09,0c0,0-.19,3,0,6.56a29.92,29.92,0,0,0,10.35.19S244.39,28.29,244.72,24.05Z"/><path class="cls-28" d="M244.68,24.64H233.6c0,.95-.1,3,0,5.3H244.1C244.24,28.94,244.47,27.11,244.68,24.64Z"/></g></g></svg>